<?xml version="1.0" encoding="utf-8"?>
<!-- Generator: Adobe Illustrator 23.0.1, SVG Export Plug-In . SVG Version: 6.00 Build 0)  -->
<svg version="1.1" id="Слой_1" xmlns="http://www.w3.org/2000/svg" xmlns:xlink="http://www.w3.org/1999/xlink" x="0px" y="0px"
	 viewBox="0 0 480 480" style="enable-background:new 0 0 480 480;" xml:space="preserve">
<style type="text/css">
	.st0{fill:#FFAB00;}
	.st1{fill:#BC8F6F;}
	.st2{fill:#CB9E78;}
	.st3{fill:#52575F;}
	.st4{fill:#666D77;}
	.st5{fill:#FCA203;}
	.st6{fill:#FFFFFF;}
</style>
<path class="st0" d="M480,72c0,39.8-32.2,72-72,72s-72-32.2-72-72s32.2-72,72-72S480,32.2,480,72z"/>
<path class="st1" d="M272,176h176c17.7,0,32,14.3,32,32s-14.3,32-32,32H32c-17.7,0-32-14.3-32-32s14.3-32,32-32h176"/>
<path class="st2" d="M448,200H32c-13.4,0-24.9,8.3-29.6,20c4.8,11.7,16.2,20,29.6,20h416c13.4,0,24.9-8.3,29.6-20
	C472.9,208.3,461.4,200,448,200z"/>
<path class="st3" d="M240,0c-17.7,0-32,14.3-32,32v160c0,17.7,14.3,32,32,32s32-14.3,32-32V32C272,14.3,257.7,0,240,0z"/>
<path class="st4" d="M228,2.4c-11.7,4.8-20,16.2-20,29.6v160c0,13.4,8.3,24.9,20,29.6c11.7-4.8,20-16.2,20-29.6V32
	C248,18.6,239.7,7.1,228,2.4z"/>
<path class="st5" d="M448,240v208c0,17.7-14.3,32-32,32H64c-17.7,0-32-14.3-32-32V240"/>
<path class="st0" d="M64,480h350.9c0.7-2.6,1.1-5.2,1.1-8V264H32v184C32,465.7,46.3,480,64,480z"/>
<g>
	<path class="st6" d="M184,432c-13.3,0-24-10.7-24-24v-96c0-13.3,10.7-24,24-24s24,10.7,24,24v96C208,421.3,197.3,432,184,432z"/>
	<path class="st6" d="M104,432c-13.3,0-24-10.7-24-24v-96c0-13.3,10.7-24,24-24s24,10.7,24,24v96C128,421.3,117.3,432,104,432z"/>
	<path class="st6" d="M296,432c-13.3,0-24-10.7-24-24v-96c0-13.3,10.7-24,24-24s24,10.7,24,24v96C320,421.3,309.3,432,296,432z"/>
	<path class="st6" d="M376,432c-13.3,0-24-10.7-24-24v-96c0-13.3,10.7-24,24-24s24,10.7,24,24v96C400,421.3,389.3,432,376,432z"/>
</g>
<path class="st6" d="M360,64h96v16h-96V64z"/>
</svg>
